<?xml version="1.0" standalone="no"?>
<!DOCTYPE svg PUBLIC "-//W3C//DTD SVG 20010904//EN"
 "http://www.w3.org/TR/2001/REC-SVG-20010904/DTD/svg10.dtd">
<svg version="1.0" xmlns="http://www.w3.org/2000/svg"
 width="512.000000pt" height="512.000000pt" viewBox="0 0 512.000000 512.000000"
 preserveAspectRatio="xMidYMid meet">
<metadata>
Created by potrace 1.14, written by Peter Selinger 2001-2017
</metadata>
<g transform="translate(0.000000,512.000000) scale(0.100000,-0.100000)"
fill="#000000" stroke="none">
<path d="M2423 4818 c-18 -6 -33 -15 -33 -19 0 -5 -8 -9 -17 -9 -9 0 -30 -4
-47 -9 -17 -6 -78 -22 -136 -36 -58 -15 -145 -40 -195 -56 -49 -17 -108 -32
-130 -33 -49 -4 -74 -13 -102 -39 -13 -12 -30 -17 -43 -14 -11 3 -20 1 -20 -4
0 -5 -19 -18 -42 -29 -44 -20 -49 -23 -133 -76 -28 -17 -65 -35 -83 -39 -18
-3 -32 -11 -32 -15 0 -5 -33 -32 -72 -59 -40 -27 -91 -65 -113 -84 -90 -81
-111 -97 -121 -97 -7 0 -28 -19 -49 -42 -20 -24 -58 -65 -85 -93 -58 -60 -130
-162 -130 -184 0 -18 -37 -82 -54 -93 -20 -13 -28 -8 -21 13 6 17 3 20 -12 17
-14 -2 -20 -16 -26 -63 -6 -40 -26 -96 -62 -170 -30 -60 -55 -117 -57 -125 -2
-8 -6 -17 -9 -20 -19 -15 -82 -223 -89 -290 -3 -41 -14 -93 -24 -114 -21 -47
-48 -180 -40 -200 3 -7 -1 -38 -9 -68 -11 -42 -12 -84 -6 -184 4 -71 4 -133
-1 -138 -12 -13 -30 2 -30 26 0 12 -2 19 -5 17 -8 -8 15 -253 37 -394 6 -38
12 -86 13 -105 2 -19 4 -44 5 -55 2 -18 3 -17 9 4 6 23 7 23 28 5 11 -11 36
-56 54 -101 18 -45 35 -80 38 -78 3 1 7 -9 7 -23 2 -33 54 -142 96 -200 24
-34 30 -54 30 -88 -1 -24 3 -44 8 -44 6 0 10 -8 10 -19 0 -10 10 -29 23 -43
12 -13 29 -37 37 -54 8 -16 23 -39 33 -51 11 -12 17 -29 14 -37 -6 -16 28 -66
44 -66 6 0 3 7 -5 16 -22 22 -20 27 5 12 31 -19 72 -55 145 -127 66 -65 84
-96 38 -66 -30 19 -40 15 -24 -12 22 -35 138 -108 154 -97 3 2 4 1 1 -2 -2 -4
39 -34 93 -66 53 -33 109 -73 123 -88 24 -26 203 -120 228 -120 14 0 14 -23 0
-37 -11 -11 -58 6 -89 33 -14 12 -209 114 -218 114 -2 0 10 -11 26 -25 17 -14
36 -25 44 -25 16 0 114 -57 161 -94 66 -52 69 -57 63 -87 -3 -16 -2 -29 3 -29
11 0 23 -31 16 -39 -3 -3 -11 1 -16 9 -7 10 -8 -1 -4 -35 6 -43 13 -56 54 -95
42 -40 117 -78 129 -65 3 3 -4 7 -14 11 -47 15 -68 27 -56 31 8 3 19 0 25 -6
17 -17 37 -13 37 8 0 11 -15 29 -37 42 -62 39 -105 45 -71 11 8 -8 8 -12 1
-12 -18 0 -36 27 -22 35 7 5 9 23 6 48 -3 23 -2 63 3 89 6 31 6 58 -2 79 -9
25 -8 34 0 37 7 2 12 25 12 55 1 50 19 94 34 80 4 -4 4 0 1 9 -8 21 117 208
140 208 3 0 18 14 32 31 33 39 124 84 188 93 28 4 60 14 72 22 12 8 35 14 50
14 15 1 46 8 68 16 144 56 188 67 199 53 7 -8 33 -15 66 -17 145 -7 194 -12
204 -22 5 -5 23 -10 39 -10 16 0 42 -11 58 -25 32 -26 55 -24 64 6 8 24 45 26
45 2 0 -10 -12 -31 -26 -48 -47 -56 -93 -138 -109 -194 -25 -85 -33 -101 -50
-101 -29 0 -140 -42 -242 -91 -56 -28 -111 -52 -123 -54 -11 -2 -40 -13 -63
-24 -41 -19 -67 -31 -194 -86 -68 -30 -101 -65 -35 -38 20 8 43 20 50 25 6 6
12 7 12 4 0 -4 20 5 43 19 51 29 77 34 57 10 -21 -26 18 -18 77 15 29 16 60
30 68 30 8 0 15 7 15 15 0 22 60 57 87 50 12 -3 32 0 45 5 20 9 18 10 -12 6
-35 -5 -35 -5 12 18 58 29 98 40 98 26 0 -6 -10 -15 -22 -20 l-23 -9 22 0 c12
-1 36 7 55 16 59 29 68 33 79 33 7 0 10 -39 8 -125 -4 -148 3 -164 65 -146 47
12 60 7 113 -41 24 -21 64 -48 90 -61 55 -26 75 -41 65 -52 -4 -5 2 -5 13 0
43 16 58 18 51 7 -4 -8 -2 -10 8 -6 9 3 13 14 10 29 -3 16 2 24 15 28 13 3 24
20 31 48 7 24 15 49 20 54 4 6 10 35 14 65 7 63 -8 49 -19 -17 -4 -24 -11 -43
-16 -43 -11 0 -11 3 5 70 7 30 18 54 24 53 6 -2 14 6 17 17 4 11 10 20 15 20
4 0 17 18 27 39 14 27 16 37 6 34 -7 -3 -13 -11 -13 -18 0 -6 -9 -20 -21 -31
-20 -18 -20 -18 -13 11 4 17 11 40 15 53 11 30 11 32 -1 32 -5 0 -9 -3 -8 -7
1 -5 -2 -21 -7 -36 -6 -22 -10 -26 -17 -15 -7 9 -8 7 -4 -8 4 -12 -4 -41 -19
-70 -14 -27 -25 -57 -25 -67 0 -10 -6 -20 -14 -23 -16 -6 -31 -56 -27 -91 3
-31 -16 -63 -34 -57 -9 4 -22 1 -30 -6 -12 -10 -16 -9 -21 4 -3 9 -16 16 -28
16 -19 0 -68 36 -77 57 -10 21 -91 53 -136 53 l-48 0 1 132 c2 143 12 235 25
244 5 3 9 16 9 29 0 13 4 26 9 29 5 4 25 35 45 70 19 34 42 69 51 76 8 7 15
22 15 35 0 12 9 30 20 40 20 18 21 18 44 -4 20 -19 24 -20 36 -6 16 19 7 81
-20 141 -11 23 -20 45 -20 48 0 12 72 106 81 106 5 0 9 6 9 13 0 14 120 162
173 213 18 16 58 49 90 73 32 23 63 53 69 67 6 13 14 24 17 24 10 0 190 180
232 231 38 45 175 123 267 151 23 7 42 16 42 19 0 13 -86 -19 -183 -66 -68
-34 -110 -62 -142 -96 -25 -26 -45 -53 -45 -59 0 -5 -5 -10 -11 -10 -7 0 -9
17 -4 51 5 37 4 50 -4 45 -6 -4 -11 -21 -11 -37 0 -18 -4 -28 -10 -24 -6 3 -7
17 -4 31 4 14 7 39 8 57 2 18 7 31 14 30 13 -3 26 78 38 240 5 56 3 87 -3 87
-9 0 -25 -157 -24 -237 1 -18 -4 -35 -11 -39 -8 -5 -9 21 -4 102 14 219 19
274 27 274 5 0 9 -10 10 -22 0 -22 1 -22 8 -3 11 30 13 218 2 211 -5 -3 -12
21 -16 55 -7 58 -8 60 -26 43 -10 -9 -19 -12 -19 -6 0 6 5 14 10 17 6 3 10 11
10 17 0 21 -29 -14 -35 -43 -4 -16 -13 -29 -20 -29 -7 0 -27 -11 -43 -25 -17
-14 -36 -25 -44 -25 -19 0 -131 -107 -126 -122 2 -6 21 9 42 35 36 44 76 73
59 43 -12 -21 -119 -113 -165 -142 -21 -14 -41 -31 -45 -39 -9 -24 -23 -17
-34 15 -6 17 -15 30 -21 30 -5 0 -6 -5 -2 -12 4 -7 3 -8 -4 -4 -6 4 -9 12 -7
19 3 7 -7 26 -21 42 -25 29 -26 29 -10 3 24 -41 11 -34 -45 23 -28 28 -53 48
-56 45 -6 -6 9 -24 55 -69 38 -36 79 -111 95 -173 9 -33 36 -102 60 -156 25
-53 48 -109 51 -125 11 -54 17 -193 9 -193 -9 0 -7 -229 2 -238 11 -12 4 -24
-11 -18 -13 5 -14 3 -6 -6 8 -10 4 -19 -14 -37 -13 -13 -24 -27 -24 -32 0 -5
-6 -9 -14 -9 -14 0 -101 -94 -101 -110 0 -3 -14 -19 -30 -37 -42 -46 -75 -90
-75 -101 0 -5 -6 -15 -14 -21 -12 -10 -19 -3 -37 38 -13 27 -27 47 -33 44 -5
-3 -6 -1 -3 4 7 12 -14 67 -36 95 -11 14 -20 16 -45 9 -26 -8 -31 -6 -35 11
-3 11 -3 34 0 52 5 31 2 34 -41 55 -25 13 -46 27 -46 33 0 5 -7 16 -15 24 -17
17 -20 34 -6 34 5 0 12 -9 16 -19 8 -28 31 -32 50 -11 25 27 10 41 -40 36 -36
-3 -48 1 -66 20 -12 13 -23 32 -24 41 -3 35 -29 93 -42 93 -10 0 -13 24 -15
93 -1 50 -1 101 -1 112 1 11 2 36 4 55 1 19 -1 101 -5 183 -8 198 -6 205 98
380 10 18 25 50 33 72 7 22 24 50 36 63 17 19 18 22 4 16 -10 -3 -34 -41 -54
-83 -20 -42 -45 -89 -57 -106 -75 -106 -83 -157 -79 -474 3 -181 0 -257 -8
-267 -8 -10 -8 -14 0 -14 6 0 11 -10 11 -22 0 -21 0 -21 -15 -2 -8 10 -15 27
-15 37 0 9 -7 17 -15 17 -17 0 -24 5 -93 66 -57 50 -191 135 -270 170 -112 51
-376 114 -358 86 3 -5 31 -12 63 -15 138 -16 302 -83 460 -189 84 -56 253
-218 253 -242 0 -8 9 -20 20 -26 10 -6 26 -25 35 -43 8 -17 29 -46 45 -64 33
-35 38 -53 15 -53 -22 0 -95 -76 -95 -99 0 -10 11 -26 25 -35 29 -19 117 -21
145 -4 27 17 40 -2 40 -60 0 -32 13 -70 47 -138 46 -92 51 -121 16 -93 -14 11
-13 6 5 -24 12 -21 22 -40 22 -42 0 -7 -82 3 -90 11 -4 5 -15 31 -23 58 -15
45 -15 47 0 35 15 -12 16 -12 9 6 -4 11 -14 44 -22 73 -8 30 -19 62 -24 73 -7
13 -7 19 0 19 5 0 28 -35 50 -77 23 -43 38 -69 34 -58 -4 11 -16 47 -26 80
-11 33 -23 67 -27 75 -14 25 -37 22 -50 -7 l-13 -28 -24 30 c-20 25 -26 28
-34 15 -12 -18 -7 -36 9 -32 7 1 10 -2 7 -7 -4 -5 0 -25 8 -43 8 -18 20 -46
27 -63 7 -16 12 -33 11 -36 0 -3 10 -28 23 -55 l24 -49 -62 -6 c-58 -5 -59 -6
-17 -8 25 -2 56 -7 70 -11 15 -5 -10 -6 -60 -4 -113 7 -152 13 -172 31 -9 8
-22 12 -29 8 -8 -6 -4 -12 12 -21 13 -7 19 -13 12 -14 -25 0 -61 19 -89 49
-16 17 -33 31 -38 31 -4 0 -25 13 -46 30 -21 16 -42 30 -47 30 -5 0 -24 14
-43 30 l-35 31 35 -17 c34 -16 34 -16 18 2 -10 10 -30 18 -45 19 -21 0 -28 5
-28 19 0 14 -16 27 -50 44 -28 13 -61 32 -75 40 -14 9 -30 15 -37 14 -19 -4
-82 38 -77 52 3 7 -4 21 -16 31 -24 22 -27 9 -3 -17 9 -10 11 -18 5 -18 -15 0
-57 66 -66 103 -8 33 11 37 24 5 6 -16 9 -18 9 -7 1 23 -48 129 -60 129 -6 0
-17 17 -26 38 -20 49 -41 72 -60 65 -12 -5 -14 -1 -9 15 4 12 2 23 -5 28 -9 5
-10 2 -6 -12 10 -28 -40 35 -54 68 -6 16 -15 28 -20 28 -13 0 20 -63 86 -165
30 -47 55 -90 55 -96 0 -6 18 -50 40 -98 38 -80 46 -90 105 -130 51 -35 62
-47 54 -58 -6 -7 -18 -13 -26 -13 -23 0 -113 -42 -113 -52 0 -6 8 -7 18 -4 14
5 13 3 -3 -9 -11 -9 -25 -13 -33 -10 -7 2 -10 1 -7 -5 7 -11 -89 -110 -106
-110 -7 0 -4 8 6 20 10 11 14 20 9 20 -15 0 -28 -13 -56 -57 -28 -43 -89 -105
-97 -98 -2 3 2 11 9 20 7 9 10 18 7 22 -3 3 -16 -11 -28 -32 -12 -20 -33 -41
-46 -46 -35 -13 -110 -11 -133 3 -15 10 -22 10 -32 0 -9 -9 -8 -12 8 -12 10 0
24 -10 29 -22 8 -19 20 -24 75 -29 36 -3 58 -6 49 -7 -9 -1 -22 -8 -28 -16
-10 -12 -3 -15 41 -19 77 -7 128 -16 148 -27 32 -17 34 -11 5 12 -18 14 -47
23 -81 26 -30 2 -54 9 -54 14 0 5 12 7 28 4 15 -3 45 -8 67 -12 22 -4 45 -13
53 -20 7 -7 19 -11 27 -8 8 4 18 -1 21 -10 3 -9 15 -16 25 -16 10 0 19 -4 19
-8 0 -17 -12 -21 -36 -12 -20 8 -27 4 -48 -23 -27 -35 -50 -87 -38 -87 4 0 20
23 35 50 26 47 49 62 61 42 3 -5 -8 -22 -25 -38 -16 -15 -41 -48 -55 -71 -27
-46 -33 -50 -52 -31 -6 6 -15 9 -19 5 -3 -4 2 -13 11 -20 14 -10 17 -21 12
-44 -4 -17 -13 -34 -20 -36 -18 -7 -169 66 -219 106 -23 19 -71 47 -107 64
-55 25 -83 49 -182 154 -106 113 -134 149 -106 141 5 -1 -3 13 -18 33 -31 41
-27 42 51 15 45 -15 55 -16 45 -5 -7 8 -22 15 -34 15 -18 0 -76 48 -76 63 0 3
-31 36 -69 74 -82 81 -98 108 -80 130 11 13 10 18 -10 34 -32 26 -39 24 -34
-9 4 -25 3 -25 -8 -7 -7 11 -22 29 -34 40 -27 25 -65 91 -65 112 0 14 3 14 20
-2 11 -10 20 -23 20 -29 1 -6 14 -27 30 -45 l30 -35 -10 30 c-5 16 -25 70 -44
119 -20 50 -35 98 -36 108 0 10 -11 42 -24 70 -46 100 -78 211 -87 306 -5 53
-17 127 -25 165 -10 42 -18 132 -20 230 -2 88 -8 195 -12 236 l-8 75 -7 -130
c-9 -179 -3 -350 17 -473 10 -57 16 -106 13 -108 -12 -12 -57 110 -57 154 0
26 -4 63 -10 82 -5 19 -10 112 -11 205 -3 260 -2 273 21 292 11 10 20 28 20
40 0 13 4 23 9 23 5 0 7 -19 5 -42 -3 -32 -2 -38 5 -23 5 11 10 38 10 60 1 22
8 73 16 115 8 41 17 92 20 113 3 20 11 37 17 37 7 0 9 -14 5 -37 -3 -21 -9
-56 -12 -78 -5 -38 -5 -38 8 8 8 26 21 55 29 65 26 31 43 83 29 91 -16 10 12
102 44 146 12 17 34 52 49 78 15 27 34 51 42 54 23 8 38 43 25 56 -7 7 -11 7
-11 1 0 -6 -8 -19 -18 -30 -10 -10 -30 -37 -45 -59 -21 -30 -27 -35 -28 -20 0
21 -9 3 -117 -235 -17 -36 -38 -72 -48 -80 -18 -15 -18 -12 0 65 1 6 12 29 24
52 12 24 38 92 57 151 20 60 49 130 65 155 16 26 32 58 36 71 3 13 17 35 31
48 14 12 45 54 70 92 42 65 150 199 179 222 8 6 14 16 14 22 0 17 62 64 76 58
8 -3 20 7 29 24 31 60 185 196 259 228 23 11 64 36 92 57 46 36 300 165 324
165 7 0 8 -6 0 -19 -10 -19 -122 -81 -146 -81 -18 0 -82 -38 -128 -77 -22 -18
-47 -33 -55 -34 -26 -1 -104 -53 -106 -70 -6 -40 -97 -129 -132 -129 -7 0 -13
-4 -13 -9 0 -5 -56 -67 -125 -136 -69 -70 -125 -133 -125 -140 0 -7 -18 -36
-40 -64 -39 -49 -49 -71 -32 -71 5 0 16 16 25 35 9 19 20 34 24 33 13 -4 109
94 137 139 22 36 245 263 279 285 7 4 20 8 29 8 9 0 59 30 112 68 52 37 110
76 128 87 18 11 44 27 58 35 14 8 48 29 75 46 28 17 82 45 120 64 56 26 66 34
51 40 -27 9 -18 13 151 69 159 52 315 84 402 83 30 -1 83 3 117 7 38 6 75 6
91 0 16 -5 51 -11 78 -15 36 -5 44 -8 31 -13 -19 -7 -19 -8 0 -15 17 -8 16 -9
-9 -17 -32 -9 -277 0 -277 11 0 9 -186 5 -222 -5 -16 -4 -26 -11 -23 -15 2 -4
-11 -10 -30 -13 -19 -3 -49 -12 -67 -20 -18 -8 -50 -22 -70 -31 -20 -9 -51
-19 -68 -22 -20 -5 -28 -10 -21 -17 6 -6 33 0 78 16 204 77 546 112 597 61 11
-10 40 -14 108 -14 59 0 124 -8 178 -20 46 -12 118 -21 160 -22 87 -1 204 -32
197 -52 -5 -12 35 -32 82 -41 11 -2 29 -8 40 -14 11 -6 33 -11 48 -11 16 0 67
-22 113 -48 47 -27 97 -52 112 -55 14 -4 45 -25 68 -47 23 -22 50 -40 59 -40
22 0 85 -44 174 -123 37 -33 70 -58 72 -55 7 6 -122 119 -175 154 -25 16 -51
35 -59 42 -8 7 -38 27 -68 44 -29 16 -65 43 -80 58 -15 16 -38 32 -52 35 -45
11 -254 104 -236 105 23 0 218 -71 306 -113 52 -24 139 -76 194 -116 55 -39
108 -77 119 -84 10 -6 37 -25 60 -41 l41 -30 -32 38 c-18 20 -33 43 -33 50 0
7 -26 29 -57 49 -32 20 -84 61 -116 92 -32 30 -63 55 -69 55 -6 0 -70 29 -142
64 -72 36 -145 67 -163 71 -17 3 -38 17 -47 29 -10 15 -29 25 -56 30 -56 9
-207 53 -243 71 -17 8 -38 15 -48 15 -25 0 -49 11 -49 21 0 5 12 7 28 4 l27
-5 -25 11 c-14 7 -33 11 -42 10 -10 -1 -65 9 -123 23 -98 24 -124 26 -318 25
-117 -1 -227 -6 -244 -11z m654 -108 c39 -5 89 -19 110 -30 21 -11 55 -23 76
-26 20 -4 37 -10 37 -15 0 -10 -49 -2 -105 18 -22 8 -76 21 -119 29 -44 7 -84
18 -90 24 -12 12 -4 12 91 0z m554 -2133 c-6 -6 -10 5 -9 34 0 60 12 74 16 20
2 -24 -1 -48 -7 -54z m-361 -272 c0 -5 -5 -3 -10 5 -5 8 -10 20 -10 25 0 6 5
3 10 -5 5 -8 10 -19 10 -25z m20 -50 c0 -5 -5 -3 -10 5 -5 8 -10 20 -10 25 0
6 5 3 10 -5 5 -8 10 -19 10 -25z m-2730 -131 c0 -14 -4 -23 -10 -19 -5 3 -10
15 -10 26 0 10 5 19 10 19 6 0 10 -12 10 -26z m13 -134 c19 -36 44 -92 56
-125 12 -33 27 -68 32 -77 5 -10 5 -18 0 -18 -4 0 -16 21 -26 46 -9 25 -18 44
-20 42 -2 -2 1 -27 7 -57 13 -71 4 -76 -18 -7 -10 30 -22 52 -27 49 -6 -3 -7
-1 -3 5 6 10 -19 115 -43 175 -6 16 -11 36 -11 45 0 22 9 10 53 -78z m2754 3
c-2 -16 -4 -5 -4 22 0 28 2 40 4 28 2 -13 2 -35 0 -50z m3 -85 c0 -47 -6 -48
-13 -1 -4 28 -1 43 10 43 2 0 3 -19 3 -42z m-700 -41 c0 -20 0 -20 -14 -2 -8
11 -12 23 -9 28 8 13 23 -3 23 -26z m704 -89 c4 -37 3 -58 -4 -58 -6 0 -10 27
-10 62 0 75 6 73 14 -4z m-1464 -51 c0 -16 -18 3 -23 25 -6 22 -5 22 8 4 8
-11 15 -24 15 -29z m1026 -222 c20 -48 17 -57 -6 -15 -20 36 -24 50 -14 50 3
0 12 -16 20 -35z m-786 -55 c8 -5 11 -12 7 -16 -4 -4 -15 0 -24 9 -18 18 -8
23 17 7z m-32 -15 c-3 -3 -14 -7 -24 -9 -11 -3 -32 -9 -47 -15 -16 -6 -34 -11
-40 -11 -19 0 26 28 53 33 38 7 64 8 58 2z m693 -97 c4 -16 6 -28 3 -28 -8 0
-44 91 -43 108 1 18 26 -33 40 -80z m177 42 c6 -16 7 -32 2 -35 -4 -3 -13 9
-19 27 -13 38 -13 38 -2 38 5 0 14 -13 19 -30z m25 -55 c4 -8 2 -17 -3 -20 -6
-4 -10 3 -10 14 0 25 6 27 13 6z m57 -122 c0 -7 -4 -13 -9 -13 -16 0 -33 30
-26 47 6 17 7 17 21 -1 8 -11 14 -26 14 -33z m-2050 22 c10 -12 10 -15 -4 -15
-9 0 -16 7 -16 15 0 8 2 15 4 15 2 0 9 -7 16 -15z m1970 -65 c0 -11 -4 -20 -9
-20 -14 0 -23 18 -16 30 10 17 25 11 25 -10z m108 -3 c2 -12 -1 -15 -12 -11
-19 7 -22 38 -3 32 6 -3 13 -12 15 -21z m-1213 -187 c-3 -5 -13 -6 -21 -3 -12
4 -13 8 -3 14 15 9 32 2 24 -11z m895 -250 c-19 -13 -30 -13 -30 0 0 6 10 10
23 10 18 0 19 -2 7 -10z m-1073 -62 c-3 -8 -6 -5 -6 6 -1 11 2 17 5 13 3 -3 4
-12 1 -19z m723 -73 c0 -2 -22 -16 -50 -30 -27 -14 -50 -21 -50 -15 0 5 17 18
38 29 36 19 62 26 62 16z m830 -175 c0 -11 -7 -20 -15 -20 -13 0 -14 4 -5 20
6 11 13 20 15 20 3 0 5 -9 5 -20z"/>
<path d="M1865 4699 l-50 -19 39 5 c22 2 47 11 55 20 19 18 18 18 -44 -6z"/>
<path d="M3550 4640 c0 -5 12 -10 28 -10 21 0 24 2 12 10 -20 13 -40 13 -40 0z"/>
<path d="M1970 4564 c-63 -21 -100 -37 -100 -44 0 -6 117 35 129 46 6 5 -10 4
-29 -2z"/>
<path d="M3080 4460 c-8 -5 -12 -11 -9 -14 2 -3 11 -1 19 4 8 5 12 11 9 14 -2
3 -11 1 -19 -4z"/>
<path d="M2970 4442 c0 -29 33 -52 71 -51 l34 1 -40 12 c-29 8 -41 18 -43 34
-4 27 -22 30 -22 4z"/>
<path d="M2750 4440 c8 -5 23 -10 34 -10 13 0 16 -5 11 -17 -5 -15 -4 -16 6
-5 16 15 4 27 -36 36 -22 5 -26 4 -15 -4z"/>
<path d="M2696 4423 c-25 -25 15 -81 45 -62 11 7 11 9 -3 9 -22 0 -44 36 -26
42 8 3 9 6 1 11 -5 4 -13 4 -17 0z"/>
<path d="M3260 4366 c0 -2 7 -7 16 -10 8 -3 12 -2 9 4 -6 10 -25 14 -25 6z"/>
<path d="M2230 4350 c-9 -6 -10 -10 -3 -10 6 0 15 5 18 10 8 12 4 12 -15 0z"/>
<path d="M2294 4345 c-10 -8 -14 -15 -7 -15 6 0 15 5 18 10 4 6 10 8 15 5 5
-3 11 -1 15 5 9 15 -18 12 -41 -5z"/>
<path d="M2768 4353 c7 -3 16 -2 19 1 4 3 -2 6 -13 5 -11 0 -14 -3 -6 -6z"/>
<path d="M3160 4338 c0 -30 17 -48 45 -48 17 1 16 3 -7 16 -16 8 -28 20 -28
27 0 8 4 6 10 -3 5 -8 10 -10 10 -4 0 6 -7 17 -15 24 -13 10 -15 9 -15 -12z"/>
<path d="M1204 4328 l-19 -23 23 19 c21 18 27 26 19 26 -2 0 -12 -10 -23 -22z"/>
<path d="M3260 4340 c0 -5 5 -10 11 -10 5 0 7 5 4 10 -3 6 -8 10 -11 10 -2 0
-4 -4 -4 -10z"/>
<path d="M2251 4321 c-10 -6 -9 -10 5 -15 20 -8 25 -4 16 11 -4 7 -13 9 -21 4z"/>
<path d="M2149 4301 c-13 -11 -19 -20 -14 -20 14 0 50 28 43 34 -3 3 -16 -3
-29 -14z"/>
<path d="M2286 4281 c-4 -7 -5 -15 -2 -18 9 -9 19 4 14 18 -4 11 -6 11 -12 0z"/>
<path d="M1129 4263 c-13 -15 -12 -15 9 -4 23 12 28 21 13 21 -5 0 -15 -7 -22
-17z"/>
<path d="M2210 4263 c-13 -15 -12 -16 4 -10 10 4 20 7 22 7 2 0 4 5 4 10 0 15
-13 12 -30 -7z"/>
<path d="M3007 4219 c7 -7 15 -10 18 -7 3 3 -2 9 -12 12 -14 6 -15 5 -6 -5z"/>
<path d="M2186 4201 c5 -11 3 -13 -9 -8 -30 11 -28 -12 2 -28 17 -8 32 -15 36
-15 11 0 4 19 -16 41 -11 13 -17 18 -13 10z"/>
<path d="M2950 4179 c0 -22 6 -32 26 -39 30 -12 81 -13 87 -2 3 4 -13 7 -34 7
-44 1 -84 30 -61 44 11 7 11 9 -2 14 -12 5 -16 0 -16 -24z"/>
<path d="M2320 4179 c0 -5 5 -7 10 -4 6 3 10 8 10 11 0 2 -4 4 -10 4 -5 0 -10
-5 -10 -11z"/>
<path d="M1712 4144 c-7 -8 -8 -14 -3 -14 10 0 25 19 20 25 -2 1 -10 -3 -17
-11z"/>
<path d="M1741 4144 c0 -11 3 -14 6 -6 3 7 2 16 -1 19 -3 4 -6 -2 -5 -13z"/>
<path d="M1670 4072 c0 -4 9 -13 21 -20 17 -11 25 -11 46 3 30 20 24 32 -6 13
-14 -8 -24 -9 -29 -3 -9 12 -32 18 -32 7z"/>
<path d="M1480 4050 c0 -5 5 -10 10 -10 6 0 10 5 10 10 0 6 -4 10 -10 10 -5 0
-10 -4 -10 -10z"/>
<path d="M4360 4039 c7 -11 14 -19 16 -16 7 7 -7 37 -17 37 -6 0 -5 -9 1 -21z"/>
<path d="M1451 4031 c-7 -5 -12 -14 -10 -20 2 -6 10 -2 17 9 14 22 13 23 -7
11z"/>
<path d="M1435 3980 c-8 -13 12 -40 29 -40 7 0 21 6 32 14 17 13 16 14 -19 12
-29 -3 -37 0 -33 10 6 16 0 19 -9 4z"/>
<path d="M1520 3979 c0 -5 5 -7 10 -4 6 3 10 8 10 11 0 2 -4 4 -10 4 -5 0 -10
-5 -10 -11z"/>
<path d="M836 3954 c-10 -14 -15 -28 -13 -31 3 -2 13 7 23 21 9 15 14 29 12
32 -3 2 -13 -7 -22 -22z"/>
<path d="M940 3888 c-15 -21 -17 -28 -6 -19 16 13 41 51 33 51 -2 0 -14 -15
-27 -32z"/>
<path d="M4470 3866 c0 -2 8 -13 19 -24 18 -21 58 -32 46 -13 -5 9 -65 43 -65
37z"/>
<path d="M1440 3821 c0 -5 9 -7 20 -4 11 3 20 7 20 9 0 2 -9 4 -20 4 -11 0
-20 -4 -20 -9z"/>
<path d="M1456 3742 c-22 -13 -30 -14 -33 -4 -5 13 -33 17 -33 4 0 -4 9 -13
20 -20 17 -11 26 -10 50 5 17 9 30 21 30 25 0 10 2 10 -34 -10z"/>
<path d="M1250 3739 c0 -5 5 -7 10 -4 6 3 10 8 10 11 0 2 -4 4 -10 4 -5 0 -10
-5 -10 -11z"/>
<path d="M1161 3724 c0 -11 3 -14 6 -6 3 7 2 16 -1 19 -3 4 -6 -2 -5 -13z"/>
<path d="M1180 3718 c0 -22 19 -23 46 -3 21 16 8 20 -16 5 -9 -6 -17 -5 -22 3
-5 8 -8 6 -8 -5z"/>
<path d="M645 3619 c-9 -17 -15 -33 -13 -35 3 -2 12 12 21 31 21 43 13 47 -8
4z"/>
<path d="M781 3627 c-6 -14 -20 -44 -31 -67 -11 -22 -18 -40 -15 -40 2 0 14
18 24 39 11 21 28 46 37 56 12 12 14 19 6 27 -8 8 -14 4 -21 -15z"/>
<path d="M546 3409 c-9 -30 -20 -61 -23 -69 -5 -12 -4 -13 9 -2 17 14 43 93
36 112 -2 7 -12 -12 -22 -41z"/>
<path d="M491 3204 c0 -11 3 -14 6 -6 3 7 2 16 -1 19 -3 4 -6 -2 -5 -13z"/>
<path d="M476 3135 c-3 -9 -6 -24 -5 -33 0 -9 5 -4 10 12 9 32 6 48 -5 21z"/>
<path d="M412 3033 c-7 -22 -12 -51 -11 -64 0 -13 7 0 15 30 17 64 14 93 -4
34z"/>
<path d="M3660 2915 c0 -9 6 -12 15 -9 8 4 15 10 15 15 0 5 -7 9 -15 9 -8 0
-15 -7 -15 -15z"/>
<path d="M3636 2903 c4 -10 10 -40 14 -68 4 -27 8 -43 9 -35 7 47 7 63 -5 85
-7 13 -10 26 -6 29 3 3 0 6 -7 6 -9 0 -11 -6 -5 -17z"/>
<path d="M377 2811 c-4 -18 -7 -48 -6 -65 1 -26 3 -24 10 14 5 25 8 54 6 65
-2 14 -5 9 -10 -14z"/>
<path d="M573 2765 c0 -27 2 -38 4 -22 2 15 2 37 0 50 -2 12 -4 0 -4 -28z"/>
<path d="M3310 2670 c-8 -5 -12 -12 -9 -15 4 -3 12 1 19 10 14 17 11 19 -10 5z"/>
<path d="M502 2635 c0 -16 2 -22 5 -12 2 9 2 23 0 30 -3 6 -5 -1 -5 -18z"/>
<path d="M361 2564 c0 -11 3 -14 6 -6 3 7 2 16 -1 19 -3 4 -6 -2 -5 -13z"/>
<path d="M1760 2299 c0 -5 5 -7 10 -4 6 3 10 8 10 11 0 2 -4 4 -10 4 -5 0 -10
-5 -10 -11z"/>
<path d="M1718 2293 c6 -2 18 -2 25 0 6 3 1 5 -13 5 -14 0 -19 -2 -12 -5z"/>
<path d="M3966 1946 c-9 -21 -16 -44 -16 -52 0 -7 -4 -16 -10 -19 -5 -3 -10
-15 -10 -26 0 -10 -4 -19 -9 -19 -4 0 -16 -20 -25 -45 -10 -25 -23 -48 -29
-52 -7 -5 -25 -33 -41 -63 -16 -30 -42 -80 -58 -111 -16 -31 -53 -80 -81 -110
-84 -87 -228 -224 -236 -224 -3 0 -17 -11 -29 -23 -15 -15 -31 -22 -43 -19
-10 3 -17 1 -13 -4 3 -5 -3 -9 -13 -9 -18 0 -83 62 -83 80 0 11 -66 33 -83 27
-7 -3 -2 -9 13 -15 19 -8 20 -11 7 -11 -20 -1 -81 -30 -75 -36 2 -3 21 0 42 6
50 14 67 -2 96 -89 13 -37 29 -76 36 -87 17 -24 18 -94 3 -204 -8 -61 -8 -86
0 -94 8 -8 11 -2 11 22 0 40 23 38 28 -2 5 -42 22 -31 22 14 0 40 0 41 30 34
17 -4 43 -18 58 -32 22 -20 28 -22 30 -9 3 12 13 10 59 -15 39 -21 59 -27 66
-20 13 13 44 14 49 2 3 -9 40 -14 93 -12 21 1 26 4 16 10 -9 6 9 13 55 20 37
7 82 18 101 26 18 8 68 19 110 25 43 6 82 15 87 20 7 7 4 10 -6 10 -9 0 -24
12 -34 28 -16 24 -16 25 -1 13 10 -8 20 -12 22 -9 3 3 -24 24 -60 46 -69 45
-81 58 -39 42 14 -6 27 -10 29 -10 4 0 -49 140 -66 172 -8 15 -18 27 -24 27
-5 0 -11 5 -14 12 -2 7 1 9 9 4 7 -4 4 4 -5 19 -10 14 -21 26 -25 26 -4 0 -12
10 -17 23 -14 28 -75 99 -131 151 -36 33 -40 41 -27 49 11 6 13 12 6 20 -10
13 61 141 100 181 21 23 38 14 19 -9 -7 -8 -8 -15 -2 -15 12 0 62 100 62 124
0 9 10 30 21 46 13 17 20 37 16 50 -3 11 4 46 14 76 23 66 19 97 -5 40z m-75
-233 c-8 -15 -10 -15 -11 -2 0 17 10 32 18 25 2 -3 -1 -13 -7 -23z m-185 -292
c-4 -5 -21 -20 -39 -32 l-32 -22 34 36 c31 33 52 44 37 18z m35 -45 c13 -14
29 -30 34 -36 6 -6 29 -28 53 -49 63 -57 56 -81 -10 -33 -63 44 -132 116 -118
120 6 2 8 8 4 13 -11 19 14 8 37 -15z m-206 -114 c-70 -68 -113 -101 -140
-109 -58 -18 -54 -9 13 27 34 18 92 64 133 105 41 41 79 74 84 74 6 0 -35 -43
-90 -97z m360 -92 c10 -22 22 -40 27 -40 4 0 8 -7 8 -15 0 -7 8 -18 17 -23 9
-6 18 -23 19 -40 1 -16 5 -40 9 -53 14 -45 -11 -5 -35 56 -24 62 -45 100 -67
123 -15 15 -17 32 -5 32 5 0 17 -18 27 -40z m-578 -72 c-3 -8 -6 -5 -6 6 -1
11 2 17 5 13 3 -3 4 -12 1 -19z m10 -50 c-3 -8 -6 -5 -6 6 -1 11 2 17 5 13 3
-3 4 -12 1 -19z m19 -155 c-1 -27 2 -56 8 -65 11 -19 3 -34 -13 -23 -14 8 -15
135 -1 135 5 0 8 -21 6 -47z"/>
<path d="M3715 1370 c3 -5 16 -15 28 -21 22 -12 22 -12 3 10 -19 21 -43 30
-31 11z"/>
<path d="M1746 1947 c3 -10 9 -15 12 -12 3 3 0 11 -7 18 -10 9 -11 8 -5 -6z"/>
<path d="M2515 1880 c3 -5 11 -10 16 -10 6 0 7 5 4 10 -3 6 -11 10 -16 10 -6
0 -7 -4 -4 -10z"/>
<path d="M3966 1864 c-9 -24 -7 -28 9 -14 17 14 20 30 6 30 -5 0 -12 -7 -15
-16z"/>
<path d="M2690 1801 c0 -6 4 -13 10 -16 6 -3 7 1 4 9 -7 18 -14 21 -14 7z"/>
<path d="M536 1715 c10 -45 47 -120 52 -106 5 14 -23 85 -44 115 -14 20 -15
20 -8 -9z"/>
<path d="M2861 1681 c-12 -22 -5 -31 24 -31 24 0 45 17 45 37 0 21 -58 16 -69
-6z"/>
<path d="M2568 1669 c-10 -5 -18 -19 -18 -30 0 -16 6 -20 26 -17 34 4 56 34
34 48 -18 12 -21 12 -42 -1z"/>
<path d="M3334 1658 l-19 -23 23 19 c21 18 27 26 19 26 -2 0 -12 -10 -23 -22z"/>
<path d="M3269 1603 c-13 -16 -12 -17 4 -4 16 13 21 21 13 21 -2 0 -10 -8 -17
-17z"/>
<path d="M590 1570 c6 -11 13 -20 16 -20 2 0 0 9 -6 20 -6 11 -13 20 -16 20
-2 0 0 -9 6 -20z"/>
<path d="M3801 1554 c-12 -15 -21 -32 -21 -38 1 -11 24 15 41 47 14 25 3 21
-20 -9z"/>
<path d="M3216 1554 c-5 -14 -4 -15 9 -4 17 14 19 20 6 20 -5 0 -12 -7 -15
-16z"/>
<path d="M3105 1552 c-18 -13 -34 -38 -51 -78 -21 -51 1 -30 41 39 27 47 29
53 10 39z"/>
<path d="M877 1490 c-3 -11 -1 -18 3 -15 5 3 11 -3 14 -12 4 -10 16 -29 27
-43 16 -20 15 -14 -7 30 -32 67 -30 65 -37 40z"/>
<path d="M2580 1480 c-10 -19 5 -38 28 -34 6 1 17 2 23 3 6 0 9 11 7 24 -4 27
-44 32 -58 7z"/>
<path d="M3766 1483 c-6 -14 -5 -15 5 -6 7 7 10 15 7 18 -3 3 -9 -2 -12 -12z"/>
<path d="M3065 1360 c-3 -6 1 -7 9 -4 18 7 21 14 7 14 -6 0 -13 -4 -16 -10z"/>
<path d="M1815 1340 c-10 -11 -14 -20 -8 -20 5 0 18 9 28 20 10 11 14 20 8 20
-5 0 -18 -9 -28 -20z"/>
<path d="M2324 1321 c11 -11 23 -21 28 -21 14 0 -1 19 -25 31 -22 12 -22 12
-3 -10z"/>
<path d="M2430 1254 c0 -13 48 -59 55 -52 3 2 -9 17 -25 33 -17 16 -30 24 -30
19z"/>
<path d="M1190 1132 c0 -8 59 -66 93 -91 35 -27 16 -3 -38 47 -30 28 -55 48
-55 44z"/>
<path d="M1360 1068 c0 -9 5 -20 10 -23 13 -8 13 5 0 25 -8 13 -10 13 -10 -2z"/>
<path d="M2188 1073 c7 -3 16 -2 19 1 4 3 -2 6 -13 5 -11 0 -14 -3 -6 -6z"/>
<path d="M942 1050 c7 -11 19 -22 28 -25 8 -4 4 5 -9 19 -29 31 -36 33 -19 6z"/>
<path d="M1950 990 c-9 -6 -10 -10 -3 -10 6 0 15 5 18 10 8 12 4 12 -15 0z"/>
<path d="M1310 982 c0 -16 57 -54 65 -42 3 5 1 10 -6 10 -7 0 -23 10 -36 22
-13 12 -23 17 -23 10z"/>
<path d="M1455 897 c48 -33 75 -49 75 -44 0 6 -77 57 -87 57 -4 0 1 -6 12 -13z"/>
<path d="M1490 791 c0 -10 30 -24 37 -17 3 2 -5 9 -16 16 -12 6 -21 7 -21 1z"/>
<path d="M3415 770 c17 -11 37 -20 45 -20 25 0 -10 26 -45 34 l-30 7 30 -21z"/>
<path d="M3973 770 c-13 -5 -23 -12 -23 -15 0 -9 16 -5 36 10 22 16 19 18 -13
5z"/>
<path d="M3875 740 c-7 -12 12 -12 40 0 18 8 17 9 -7 9 -15 1 -30 -3 -33 -9z"/>
<path d="M3780 720 c-13 -9 -13 -10 0 -9 8 1 26 5 40 9 l25 8 -25 1 c-14 0
-32 -4 -40 -9z"/>
<path d="M2208 484 c-38 -20 -36 -28 2 -9 17 9 30 18 30 20 0 7 -1 6 -32 -11z"/>
<path d="M2040 460 c0 -5 -24 -21 -54 -35 -30 -14 -58 -30 -61 -35 -3 -6 -13
-10 -22 -10 -19 0 -73 -57 -73 -77 0 -8 16 -2 42 16 24 16 46 27 50 24 5 -2
20 5 34 16 15 12 37 21 50 21 12 0 26 5 29 10 8 13 -37 4 -83 -17 -46 -20 -64
-11 -19 10 20 10 38 21 41 26 3 4 23 13 45 21 41 13 50 23 31 35 -5 3 -10 1
-10 -5z"/>
<path d="M2133 453 c-14 -5 -18 -23 -5 -23 5 0 17 7 28 15 14 11 15 14 4 14
-8 0 -21 -3 -27 -6z"/>
<path d="M2894 390 c52 -22 60 -22 47 -1 -5 7 -28 15 -52 17 l-44 5 49 -21z"/>
<path d="M1840 256 c0 -9 5 -16 10 -16 6 0 10 4 10 9 0 6 -4 13 -10 16 -5 3
-10 -1 -10 -9z"/>
<path d="M1845 220 c3 -5 10 -10 16 -10 5 0 9 5 9 10 0 6 -7 10 -16 10 -8 0
-12 -4 -9 -10z"/>
</g>
</svg>
